<?xml version="1.0" standalone="no"?><!DOCTYPE svg PUBLIC "-//W3C//DTD SVG 1.1//EN" "http://www.w3.org/Graphics/SVG/1.1/DTD/svg11.dtd"><svg t="1579241053578" class="icon" viewBox="0 0 1024 1024" version="1.1" xmlns="http://www.w3.org/2000/svg" p-id="12169" width="60" height="60" xmlns:xlink="http://www.w3.org/1999/xlink"><defs><style type="text/css"></style></defs><path d="M963.96361 502.700229a50.640549 50.640549 0 0 1 44.186362 55.946636 505.691807 505.691807 0 0 1-142.519634 299.902517 492.162837 492.162837 0 0 1-352.249702 147.081007 492.162837 492.162837 0 0 1-352.249703-147.081007c-194.153135-196.170068-194.153135-514.907643 0-711.077711C312.369926-5.25675 542.641688-43.640548 734.312443 52.551671a50.268192 50.268192 0 0 1 22.403478 67.272495 49.30627 49.30627 0 0 1-66.589839 22.651716C537.025304 65.739314 352.801688 96.520825 231.475373 218.498765c-155.614188 156.54508-155.614188 411.764759 0 568.961464 75.278169 75.433318 175.473226 117.571716 281.905263 117.571716 106.432037 0 206.627094-42.138398 281.284668-118.223341a396.187826 396.187826 0 0 0 114.499771-239.518626c3.134005-27.647506 27.399268-47.785812 54.798535-44.620778z m-589.379038-60.973455l138.796064 140.812998L877.452672 215.39579a49.585538 49.585538 0 0 1 70.313409 0 50.826728 50.826728 0 0 1 0 71.058124L549.468233 688.7546a51.199085 51.199085 0 0 1-35.467002 14.459863c-13.063524 0-25.506453-4.406224-35.467003-14.459863l-174.263066-176.031762a50.826728 50.826728 0 0 1 0-71.058124 49.585538 49.585538 0 0 1 70.31341 0z" p-id="12170" fill="#219084"></path></svg>