<?xml version="1.0" standalone="no"?><!DOCTYPE svg PUBLIC "-//W3C//DTD SVG 1.1//EN" "http://www.w3.org/Graphics/SVG/1.1/DTD/svg11.dtd"><svg t="1579240781108" class="icon" viewBox="0 0 1024 1024" version="1.1" xmlns="http://www.w3.org/2000/svg" p-id="1726" width="60" height="60" xmlns:xlink="http://www.w3.org/1999/xlink"><defs><style type="text/css"></style></defs><path d="M159.09 450.3c0-160.57 130.63-291.22 291.21-291.22S741.52 289.73 741.52 450.3 610.88 741.53 450.3 741.53 159.09 610.88 159.09 450.3z m783.77 409.81L761.57 678.82a384.25 384.25 0 0 0 75-228.52c0-213-173.3-386.3-386.31-386.3S64 237.3 64 450.3s173.29 386.32 386.3 386.32a384.23 384.23 0 0 0 228.51-75l181.3 181.29a58.51 58.51 0 0 0 82.75-82.75z" p-id="1727" fill="#219084"></path></svg>